<svg version="1.1" id="Layer_1" xmlns="http://www.w3.org/2000/svg" xmlns:xlink="http://www.w3.org/1999/xlink" x="0px" y="0px"
	 viewBox="0 0 595.3 595.3" enable-background="new 0 0 595.3 595.3" xml:space="preserve">
<g>
	<g id="XMLID_1_">
		<g>
			<path fill="#E2E2E6" d="M543.4,161.4c0,2.8-0.1,5.6-0.3,8.4c-2.1,38.8-22.1,207.4-204.7,399.9l-0.4-0.1
				c-10.8,9.4-24.8,15.1-40.1,15.1c-15.3,0-29.3-5.7-40.1-15l-0.3,0.1C49,349.9,52.5,161.4,52.5,161.4c0-14.6,2.9-28.5,8.2-41.1
				C83.1,58.3,180.7,11.7,297.8,11.7c114.4,0,210.3,44.5,235.5,104.3C539.8,129.8,543.4,145.2,543.4,161.4z"/>
		</g>
	</g>
</g>
</svg>
